<?xml version="1.0" encoding="UTF-8"?>
<svg xmlns="http://www.w3.org/2000/svg" xmlns:xlink="http://www.w3.org/1999/xlink" width="44px" height="44px" viewBox="0 0 44 44" version="1.1">
<g id="surface1">
<path style=" stroke:none;fill-rule:nonzero;fill:rgb(100%,100%,100%);fill-opacity:1;" d="M 22 0 C 9.851562 0 0 9.851562 0 22 C 0 34.148438 9.851562 44 22 44 C 34.148438 44 44 34.148438 44 22 C 44 9.847656 34.148438 0 22 0 Z M 27.6875 21.996094 L 24.082031 22 L 24.078125 35.199219 L 19.132812 35.199219 L 19.132812 22 L 15.832031 22 L 15.832031 17.453125 L 19.132812 17.449219 L 19.125 14.769531 C 19.125 11.058594 20.132812 8.800781 24.503906 8.800781 L 28.144531 8.800781 L 28.144531 13.351562 L 25.867188 13.351562 C 24.164062 13.351562 24.082031 13.988281 24.082031 15.171875 L 24.078125 17.449219 L 28.167969 17.449219 Z M 27.6875 21.996094 "/>
</g>
</svg>
