<?xml version="1.0" encoding="UTF-8"?>
<svg xmlns="http://www.w3.org/2000/svg" xmlns:xlink="http://www.w3.org/1999/xlink" width="44px" height="44px" viewBox="0 0 44 44" version="1.1">
<g id="surface1">
<path style=" stroke:none;fill-rule:nonzero;fill:rgb(100%,100%,100%);fill-opacity:1;" d="M 22 26.402344 C 24.425781 26.402344 26.40625 24.429688 26.40625 22 C 26.40625 21.042969 26.089844 20.15625 25.570312 19.433594 C 24.773438 18.324219 23.472656 17.597656 22 17.597656 C 20.53125 17.597656 19.230469 18.324219 18.429688 19.433594 C 17.910156 20.15625 17.597656 21.039062 17.597656 22 C 17.59375 24.429688 19.570312 26.402344 22 26.402344 Z M 22 26.402344 "/>
<path style=" stroke:none;fill-rule:nonzero;fill:rgb(100%,100%,100%);fill-opacity:1;" d="M 31.617188 16.613281 L 31.617188 12.371094 L 31.066406 12.371094 L 27.375 12.382812 L 27.390625 16.625 Z M 31.617188 16.613281 "/>
<path style=" stroke:none;fill-rule:nonzero;fill:rgb(100%,100%,100%);fill-opacity:1;" d="M 22 0 C 9.871094 0 0 9.871094 0 22 C 0 34.128906 9.871094 44 22 44 C 34.128906 44 44 34.128906 44 22 C 44 9.871094 34.132812 0 22 0 Z M 34.511719 19.433594 L 34.511719 29.675781 C 34.511719 32.34375 32.34375 34.511719 29.675781 34.511719 L 14.324219 34.511719 C 11.65625 34.511719 9.488281 32.34375 9.488281 29.675781 L 9.488281 14.324219 C 9.488281 11.65625 11.65625 9.488281 14.324219 9.488281 L 29.675781 9.488281 C 32.34375 9.488281 34.511719 11.65625 34.511719 14.324219 Z M 34.511719 19.433594 "/>
<path style=" stroke:none;fill-rule:nonzero;fill:rgb(100%,100%,100%);fill-opacity:1;" d="M 28.84375 22 C 28.84375 25.773438 25.773438 28.84375 22 28.84375 C 18.226562 28.84375 15.15625 25.773438 15.15625 22 C 15.15625 21.09375 15.335938 20.226562 15.660156 19.433594 L 11.925781 19.433594 L 11.925781 29.675781 C 11.925781 31 13 32.074219 14.324219 32.074219 L 29.675781 32.074219 C 30.996094 32.074219 32.070312 31 32.070312 29.675781 L 32.070312 19.433594 L 28.335938 19.433594 C 28.660156 20.226562 28.84375 21.09375 28.84375 22 Z M 28.84375 22 "/>
</g>
</svg>
