<?xml version="1.0" encoding="UTF-8"?>
<svg xmlns="http://www.w3.org/2000/svg" xmlns:xlink="http://www.w3.org/1999/xlink" width="44px" height="44px" viewBox="0 0 44 44" version="1.1">
<g id="surface1">
<path style=" stroke:none;fill-rule:nonzero;fill:rgb(100%,100%,100%);fill-opacity:1;" d="M 22 0 C 9.871094 0 0 9.871094 0 22 C 0 34.128906 9.871094 44 22 44 C 34.128906 44 44 34.128906 44 22 C 44 9.871094 34.132812 0 22 0 Z M 31.8125 16.964844 C 31.824219 17.183594 31.828125 17.402344 31.828125 17.621094 C 31.828125 24.3125 26.738281 32.027344 17.421875 32.027344 C 14.5625 32.027344 11.898438 31.191406 9.660156 29.753906 C 10.054688 29.800781 10.457031 29.824219 10.867188 29.824219 C 13.238281 29.824219 15.421875 29.015625 17.15625 27.65625 C 14.941406 27.617188 13.070312 26.152344 12.425781 24.140625 C 12.734375 24.199219 13.050781 24.230469 13.378906 24.230469 C 13.839844 24.230469 14.289062 24.171875 14.710938 24.054688 C 12.394531 23.589844 10.652344 21.542969 10.652344 19.089844 C 10.652344 19.070312 10.652344 19.046875 10.652344 19.027344 C 11.335938 19.40625 12.113281 19.632812 12.945312 19.660156 C 11.585938 18.753906 10.691406 17.203125 10.691406 15.445312 C 10.691406 14.515625 10.941406 13.644531 11.378906 12.898438 C 13.875 15.960938 17.605469 17.976562 21.8125 18.191406 C 21.726562 17.820312 21.683594 17.433594 21.683594 17.035156 C 21.683594 14.238281 23.949219 11.972656 26.746094 11.972656 C 28.203125 11.972656 29.515625 12.585938 30.441406 13.570312 C 31.597656 13.34375 32.679688 12.925781 33.660156 12.339844 C 33.277344 13.523438 32.476562 14.515625 31.429688 15.144531 C 32.453125 15.019531 33.433594 14.75 34.339844 14.347656 C 33.664062 15.359375 32.804688 16.253906 31.8125 16.964844 Z M 31.8125 16.964844 "/>
</g>
</svg>
